STARTFONT 2.1
COMMENT $XFree86$
COMMENT  
COMMENT  Copyright 1988 Bitstream, Inc., Cambridge, Massachusetts, USA
COMMENT  Bitstream and Charter are registered trademarks of Bitstream, Inc.
COMMENT  
COMMENT  The names "Bitstream" and "Charter" are registered trademarks of
COMMENT  Bitstream, Inc.  Permission to use these trademarks is hereby
COMMENT  granted only in association with the images described in this file.
COMMENT  
COMMENT  Permission to use, copy, modify, and distribute this software and
COMMENT  its documentation for any purpose and without fee is hereby
COMMENT  granted, provided that the above copyright notice appear in all
COMMENT  copies and that both that copyright notice and this permission
COMMENT  notice appear in supporting documentation, and that the name of
COMMENT  Bitstream not be used in advertising or publicity pertaining to
COMMENT  distribution of the software without specific, written prior
COMMENT  permission.  Bitstream makes no representations about the
COMMENT  suitability of this software for any purpose.  It is provided "as
COMMENT  is" without express or implied warranty.
COMMENT  
COMMENT  BITSTREAM DISCLAIMS ALL WARRANTIES WITH REGARD TO THIS SOFTWARE,
COMMENT  INCLUDING ALL IMPLIED WARRANTIES OF MERCHANTABILITY AND FITNESS, IN
COMMENT  NO EVENT SHALL BITSTREAM BE LIABLE FOR ANY SPECIAL, INDIRECT OR
COMMENT  CONSEQUENTIAL DAMAGES OR ANY DAMAGES WHATSOEVER RESULTING FROM LOSS
COMMENT  OF USE, DATA OR PROFITS, WHETHER IN AN ACTION OF CONTRACT,
COMMENT  NEGLIGENCE OR OTHER TORTIOUS ACTION, ARISING OUT OF OR IN
COMMENT  CONNECTION WITH THE USE OR PERFORMANCE OF THIS SOFTWARE.
COMMENT  
COMMENT  
COMMENT Fontware CVTBDF v1.0
FONT -Bitstream-Charter-Medium-I-Normal--8-80-75-75-P-44-ISO8859-1
SIZE 8 75 75
FONTBOUNDINGBOX 9 10 -1 -2
STARTPROPERTIES 22
COMMENT Begin LogicalFontDescription
FONTNAME_REGISTRY ""
FAMILY_NAME "Charter"
FOUNDRY "Bitstream"
WEIGHT_NAME "Medium"
SETWIDTH_NAME "Normal"
SLANT "I"
ADD_STYLE_NAME ""
PIXEL_SIZE 8

STARTCHAR space
ENCODING 32
SWIDTH 278 0
DWIDTH 2 0
BBX 1 1 0 0
BITMAP
00
ENDCHAR
STARTCHAR exclam
ENCODING 33
SWIDTH 338 0
DWIDTH 3 0
BBX 2 6 1 0
BITMAP
40
40
40
80
00
80
ENDCHAR
STARTCHAR quotedbl
ENCODING 34
SWIDTH 331 0
DWIDTH 3 0
BBX 3 2 0 4
BITMAP
a0
a0
ENDCHAR
STARTCHAR numbersign
ENCODING 35
SWIDTH 745 0
DWIDTH 6 0
BBX 5 7 0 -1
BITMAP
28
30
f8
50
f8
60
a0
ENDCHAR
STARTCHAR dollar
ENCODING 36
SWIDTH 556 0
DWIDTH 5 0
BBX 4 7 0 -1
BITMAP
30
70
60
30
d0
60
40
ENDCHAR
STARTCHAR percent
ENCODING 37
SWIDTH 852 0
DWIDTH 7 0
BBX 7 6 0 0
BITMAP
44
a8
b4
5a
2a
44
ENDCHAR
STARTCHAR ampersand
ENCODING 38
SWIDTH 704 0
DWIDTH 6 0
BBX 5 6 0 0
BITMAP
30
50
50
68
90
68
ENDCHAR
STARTCHAR quoteright
ENCODING 39
SWIDTH 201 0
DWIDTH 2 0
BBX 1 2 1 4
BITMAP
80
80
ENDCHAR
STARTCHAR parenleft
ENCODING 40
SWIDTH 419 0
DWIDTH 4 0
BBX 3 7 1 -1
BITMAP
20
40
40
80
80
80
40
ENDCHAR
STARTCHAR parenright
ENCODING 41
SWIDTH 419 0
DWIDTH 4 0
BBX 3 7 0 -1
BITMAP
40
20
20
20
20
40
80
ENDCHAR
STARTCHAR asterisk
ENCODING 42
SWIDTH 500 0
DWIDTH 4 0
BBX 3 3 1 3
BITMAP
40
a0
c0
ENDCHAR
STARTCHAR plus
ENCODING 43
SWIDTH 833 0
DWIDTH 7 0
BBX 5 5 1 0
BITMAP
20
20
f8
20
20
ENDCHAR
STARTCHAR comma
ENCODING 44
SWIDTH 278 0
DWIDTH 2 0
BBX 1 2 0 -1
BITMAP
80
80
ENDCHAR
STARTCHAR hyphen
ENCODING 45
SWIDTH 319 0
DWIDTH 3 0
BBX 2 1 0 1
BITMAP
c0
ENDCHAR
STARTCHAR period
ENCODING 46
SWIDTH 278 0
DWIDTH 2 0
BBX 1 1 0 0
BITMAP
80
ENDCHAR
STARTCHAR slash
ENCODING 47
SWIDTH 481 0
DWIDTH 4 0
BBX 5 7 -1 -1
BITMAP
08
10
10
20
40
40
80
ENDCHAR
STARTCHAR zero
ENCODING 48
SWIDTH 556 0
DWIDTH 5 0
BBX 5 6 0 0
BITMAP
30
48
88
88
90
60
ENDCHAR
STARTCHAR one
ENCODING 49
SWIDTH 556 0
DWIDTH 5 0
BBX 2 6 1 0
BITMAP
40
c0
40
40
40
c0
ENDCHAR
STARTCHAR two
ENCODING 50
SWIDTH 556 0
DWIDTH 5 0
BBX 5 6 0 0
BITMAP
30
48
08
30
48
f0
ENDCHAR
STARTCHAR three
ENCODING 51
SWIDTH 556 0
DWIDTH 5 0
BBX 5 6 0 0
BITMAP
30
48
18
30
08
f0
ENDCHAR
STARTCHAR four
ENCODING 52
SWIDTH 556 0
DWIDTH 5 0
BBX 5 6 0 0
BITMAP
10
30
50
f8
10
20
ENDCHAR
STARTCHAR five
ENCODING 53
SWIDTH 556 0
DWIDTH 5 0
BBX 5 6 0 0
BITMAP
78
40
60
10
b0
c0
ENDCHAR
STARTCHAR six
ENCODING 54
SWIDTH 556 0
DWIDTH 5 0
BBX 4 6 0 0
BITMAP
30
40
e0
90
90
60
ENDCHAR
STARTCHAR seven
ENCODING 55
SWIDTH 556 0
DWIDTH 5 0
BBX 5 6 0 0
BITMAP
78
48
10
20
40
c0
ENDCHAR
STARTCHAR eight
ENCODING 56
SWIDTH 556 0
DWIDTH 5 0
BBX 5 6 0 0
BITMAP
30
48
70
d8
90
60
ENDCHAR
STARTCHAR nine
ENCODING 57
SWIDTH 556 0
DWIDTH 5 0
BBX 4 6 1 0
BITMAP
60
90
90
60
20
c0
ENDCHAR
STARTCHAR colon
ENCODING 58
SWIDTH 319 0
DWIDTH 3 0
BBX 2 4 0 0
BITMAP
40
00
00
80
ENDCHAR
STARTCHAR semicolon
ENCODING 59
SWIDTH 319 0
DWIDTH 3 0
BBX 3 5 0 -1
BITMAP
60
00
00
40
c0
ENDCHAR
STARTCHAR less
ENCODING 60
SWIDTH 833 0
DWIDTH 7 0
BBX 5 4 1 0
BITMAP
18
60
e0
18
ENDCHAR
STARTCHAR equal
ENCODING 61
SWIDTH 833 0
DWIDTH 7 0
BBX 5 3 1 1
BITMAP
f8
00
f8
ENDCHAR
STARTCHAR greater
ENCODING 62
SWIDTH 833 0
DWIDTH 7 0
BBX 5 4 1 0
BITMAP
c0
30
38
c0
ENDCHAR
STARTCHAR question
ENCODING 63
SWIDTH 486 0
DWIDTH 4 0
BBX 4 6 0 0
BITMAP
60
90
30
40
00
80
ENDCHAR
STARTCHAR at
ENCODING 64
SWIDTH 942 0
DWIDTH 8 0
BBX 7 7 1 -1
BITMAP
18
64
5a
aa
bc
44
38
ENDCHAR
STARTCHAR A
ENCODING 65
SWIDTH 606 0
DWIDTH 5 0
BBX 6 6 -1 0
BITMAP
18
18
28
78
48
cc
ENDCHAR
STARTCHAR B
ENCODING 66
SWIDTH 588 0
DWIDTH 5 0
BBX 5 6 0 0
BITMAP
70
58
70
48
58
e0
ENDCHAR
STARTCHAR C
ENCODING 67
SWIDTH 604 0
DWIDTH 5 0
BBX 5 6 0 0
BITMAP
38
48
80
80
90
70
ENDCHAR
STARTCHAR D
ENCODING 68
SWIDTH 671 0
DWIDTH 6 0
BBX 6 6 0 0
BITMAP
70
2c
44
44
58
e0
ENDCHAR
STARTCHAR E
ENCODING 69
SWIDTH 546 0
DWIDTH 5 0
BBX 5 6 0 0
BITMAP
78
40
70
50
48
f0
ENDCHAR
STARTCHAR F
ENCODING 70
SWIDTH 509 0
DWIDTH 4 0
BBX 5 6 0 0
BITMAP
78
40
70
50
40
c0
ENDCHAR
STARTCHAR G
ENCODING 71
SWIDTH 664 0
DWIDTH 6 0
BBX 6 6 0 0
BITMAP
1c
64
80
8c
88
70
ENDCHAR
STARTCHAR H
ENCODING 72
SWIDTH 712 0
DWIDTH 6 0
BBX 6 6 0 0
BITMAP
6c
48
78
48
48
d8
ENDCHAR
STARTCHAR I
ENCODING 73
SWIDTH 313 0
DWIDTH 3 0
BBX 3 6 0 0
BITMAP
60
40
40
40
40
c0
ENDCHAR
STARTCHAR J
ENCODING 74
SWIDTH 447 0
DWIDTH 3 0
BBX 4 6 -1 0
BITMAP
30
10
20
20
a0
c0
ENDCHAR
STARTCHAR K
ENCODING 75
SWIDTH 625 0
DWIDTH 5 0
BBX 6 6 0 0
BITMAP
6c
48
50
70
50
c8
ENDCHAR
STARTCHAR L
ENCODING 76
SWIDTH 498 0
DWIDTH 4 0
BBX 4 6 0 0
BITMAP
60
40
40
40
50
f0
ENDCHAR
STARTCHAR M
ENCODING 77
SWIDTH 839 0
DWIDTH 7 0
BBX 7 6 0 0
BITMAP
46
64
6c
6c
b4
ec
ENDCHAR
STARTCHAR N
ENCODING 78
SWIDTH 683 0
DWIDTH 5 0
BBX 6 6 0 0
BITMAP
4c
64
68
58
98
c8
ENDCHAR
STARTCHAR O
ENCODING 79
SWIDTH 708 0
DWIDTH 6 0
BBX 6 6 0 0
BITMAP
38
44
84
84
88
70
ENDCHAR
STARTCHAR P
ENCODING 80
SWIDTH 542 0
DWIDTH 5 0
BBX 5 6 0 0
BITMAP
70
48
58
60
40
c0
ENDCHAR
STARTCHAR Q
ENCODING 81
SWIDTH 708 0
DWIDTH 6 0
BBX 6 7 0 -1
BITMAP
38
44
84
84
c8
30
1c
ENDCHAR
STARTCHAR R
ENCODING 82
SWIDTH 602 0
DWIDTH 5 0
BBX 5 6 0 0
BITMAP
70
48
58
60
50
c8
ENDCHAR
STARTCHAR S
ENCODING 83
SWIDTH 537 0
DWIDTH 4 0
BBX 4 6 0 0
BITMAP
30
50
60
10
90
60
ENDCHAR
STARTCHAR T
ENCODING 84
SWIDTH 565 0
DWIDTH 5 0
BBX 5 6 0 0
BITMAP
f8
a8
20
40
40
60
ENDCHAR
STARTCHAR U
ENCODING 85
SWIDTH 664 0
DWIDTH 6 0
BBX 5 6 1 0
BITMAP
d8
48
90
90
90
60
ENDCHAR
STARTCHAR V
ENCODING 86
SWIDTH 590 0
DWIDTH 5 0
BBX 5 6 0 0
BITMAP
d8
88
50
60
60
40
ENDCHAR
STARTCHAR W
ENCODING 87
SWIDTH 898 0
DWIDTH 8 0
BBX 8 6 0 0
BITMAP
cb00
9a00
5a00
6c00
6c00
4800
ENDCHAR
STARTCHAR X
ENCODING 88
SWIDTH 569 0
DWIDTH 5 0
BBX 6 6 -1 0
BITMAP
6c
28
30
30
50
d8
ENDCHAR
STARTCHAR Y
ENCODING 89
SWIDTH 563 0
DWIDTH 4 0
BBX 5 6 0 0
BITMAP
d8
50
60
40
40
60
ENDCHAR
STARTCHAR Z
ENCODING 90
SWIDTH 556 0
DWIDTH 5 0
BBX 5 6 0 0
BITMAP
78
50
20
20
50
f0
ENDCHAR
STARTCHAR bracketleft
ENCODING 91
SWIDTH 421 0
DWIDTH 4 0
BBX 4 7 0 -1
BITMAP
30
40
40
40
80
80
c0
ENDCHAR
STARTCHAR backslash
ENCODING 92
SWIDTH 481 0
DWIDTH 4 0
BBX 4 7 0 -1
BITMAP
80
40
40
20
20
10
10
ENDCHAR
STARTCHAR bracketright
ENCODING 93
SWIDTH 421 0
DWIDTH 4 0
BBX 3 7 0 -1
BITMAP
60
20
20
20
40
40
c0
ENDCHAR
STARTCHAR asciicircum
ENCODING 94
SWIDTH 1000 0
DWIDTH 8 0
BBX 5 2 1 4
BITMAP
70
88
ENDCHAR
STARTCHAR underscore
ENCODING 95
SWIDTH 500 0
DWIDTH 4 0
BBX 4 1 0 -2
BITMAP
f0
ENDCHAR
STARTCHAR quoteleft
ENCODING 96
SWIDTH 201 0
DWIDTH 2 0
BBX 1 2 1 4
BITMAP
80
80
ENDCHAR
STARTCHAR a
ENCODING 97
SWIDTH 525 0
DWIDTH 4 0
BBX 4 4 0 0
BITMAP
30
50
a0
50
ENDCHAR
STARTCHAR b
ENCODING 98
SWIDTH 507 0
DWIDTH 4 0
BBX 4 6 0 0
BITMAP
c0
40
60
d0
b0
40
ENDCHAR
STARTCHAR c
ENCODING 99
SWIDTH 394 0
DWIDTH 3 0
BBX 3 4 0 0
BITMAP
60
80
a0
40
ENDCHAR
STARTCHAR d
ENCODING 100
SWIDTH 523 0
DWIDTH 4 0
BBX 4 6 0 0
BITMAP
10
10
30
50
a0
50
ENDCHAR
STARTCHAR e
ENCODING 101
SWIDTH 424 0
DWIDTH 4 0
BBX 4 4 0 0
BITMAP
20
70
c0
70
ENDCHAR
STARTCHAR f
ENCODING 102
SWIDTH 292 0
DWIDTH 3 0
BBX 5 8 -1 -2
BITMAP
18
20
30
20
20
20
40
c0
ENDCHAR
STARTCHAR g
ENCODING 103
SWIDTH 481 0
DWIDTH 5 0
BBX 5 6 0 -2
BITMAP
28
50
20
f0
90
60
ENDCHAR
STARTCHAR h
ENCODING 104
SWIDTH 551 0
DWIDTH 5 0
BBX 5 6 0 0
BITMAP
40
40
70
50
90
98
ENDCHAR
STARTCHAR i
ENCODING 105
SWIDTH 287 0
DWIDTH 2 0
BBX 1 6 1 0
BITMAP
80
00
80
80
80
80
ENDCHAR
STARTCHAR j
ENCODING 106
SWIDTH 269 0
DWIDTH 2 0
BBX 3 8 -1 -2
BITMAP
20
00
60
20
20
40
40
80
ENDCHAR
STARTCHAR k
ENCODING 107
SWIDTH 514 0
DWIDTH 4 0
BBX 4 6 0 0
BITMAP
40
40
50
60
a0
90
ENDCHAR
STARTCHAR l
ENCODING 108
SWIDTH 275 0
DWIDTH 2 0
BBX 1 6 0 0
BITMAP
80
80
80
80
80
80
ENDCHAR
STARTCHAR m
ENCODING 109
SWIDTH 815 0
DWIDTH 7 0
BBX 7 4 0 0
BITMAP
fc
d4
94
a6
ENDCHAR
STARTCHAR n
ENCODING 110
SWIDTH 556 0
DWIDTH 5 0
BBX 5 4 0 0
BITMAP
f0
50
90
98
ENDCHAR
STARTCHAR o
ENCODING 111
SWIDTH 502 0
DWIDTH 4 0
BBX 4 4 0 0
BITMAP
60
90
90
60
ENDCHAR
STARTCHAR p
ENCODING 112
SWIDTH 516 0
DWIDTH 4 0
BBX 5 6 -1 -2
BITMAP
78
28
58
60
40
c0
ENDCHAR
STARTCHAR q
ENCODING 113
SWIDTH 512 0
DWIDTH 4 0
BBX 4 6 0 -2
BITMAP
30
d0
b0
60
20
30
ENDCHAR
STARTCHAR r
ENCODING 114
SWIDTH 398 0
DWIDTH 3 0
BBX 3 4 0 0
BITMAP
a0
c0
80
80
ENDCHAR
STARTCHAR s
ENCODING 115
SWIDTH 370 0
DWIDTH 3 0
BBX 3 4 0 0
BITMAP
60
40
20
c0
ENDCHAR
STARTCHAR t
ENCODING 116
SWIDTH 333 0
DWIDTH 3 0
BBX 3 5 0 0
BITMAP
40
e0
80
80
c0
ENDCHAR
STARTCHAR u
ENCODING 117
SWIDTH 553 0
DWIDTH 5 0
BBX 4 4 0 0
BITMAP
90
90
a0
d0
ENDCHAR
STARTCHAR v
ENCODING 118
SWIDTH 454 0
DWIDTH 4 0
BBX 4 4 0 0
BITMAP
90
50
60
40
ENDCHAR
STARTCHAR w
ENCODING 119
SWIDTH 713 0
DWIDTH 6 0
BBX 6 4 0 0
BITMAP
94
54
78
50
ENDCHAR
STARTCHAR x
ENCODING 120
SWIDTH 477 0
DWIDTH 4 0
BBX 4 4 0 0
BITMAP
50
60
60
b0
ENDCHAR
STARTCHAR y
ENCODING 121
SWIDTH 475 0
DWIDTH 4 0
BBX 5 6 -1 -2
BITMAP
48
30
30
20
20
c0
ENDCHAR
STARTCHAR z
ENCODING 122
SWIDTH 440 0
DWIDTH 4 0
BBX 4 4 0 0
BITMAP
70
a0
50
e0
ENDCHAR
STARTCHAR braceleft
ENCODING 123
SWIDTH 486 0
DWIDTH 4 0
BBX 3 7 0 -1
BITMAP
20
40
40
80
40
40
20
ENDCHAR
STARTCHAR bar
ENCODING 124
SWIDTH 500 0
DWIDTH 4 0
BBX 1 8 2 -2
BITMAP
80
80
80
80
80
80
80
80
ENDCHAR
STARTCHAR braceright
ENCODING 125
SWIDTH 486 0
DWIDTH 4 0
BBX 3 7 0 -1
BITMAP
80
40
40
20
40
40
80
ENDCHAR
STARTCHAR c0126
ENCODING 126
SWIDTH 1000 0
DWIDTH 8 0
BBX 6 2 1 3
BITMAP
64
98
ENDCHAR
STARTCHAR space
ENCODING 160
SWIDTH 278 0
DWIDTH 2 0
BBX 1 1 0 0
BITMAP
00
ENDCHAR
STARTCHAR exclamdown
ENCODING 161
SWIDTH 338 0
DWIDTH 3 0
BBX 2 6 1 0
BITMAP
40
00
40
80
80
80
ENDCHAR
STARTCHAR cent
ENCODING 162
SWIDTH 556 0
DWIDTH 5 0
BBX 4 6 0 -1
BITMAP
20
30
60
a0
60
40
ENDCHAR
STARTCHAR sterling
ENCODING 163
SWIDTH 556 0
DWIDTH 5 0
BBX 5 6 0 0
BITMAP
18
28
40
70
40
f0
ENDCHAR
STARTCHAR currency
ENCODING 164
SWIDTH 606 0
DWIDTH 5 0
BBX 5 5 0 1
BITMAP
88
70
50
70
88
ENDCHAR
STARTCHAR yen
ENCODING 165
SWIDTH 556 0
DWIDTH 5 0
BBX 5 6 0 0
BITMAP
c8
50
d0
20
f0
60
ENDCHAR
STARTCHAR brokenbar
ENCODING 166
SWIDTH 500 0
DWIDTH 4 0
BBX 1 7 2 -1
BITMAP
80
80
80
00
80
80
80
ENDCHAR
STARTCHAR section
ENCODING 167
SWIDTH 500 0
DWIDTH 4 0
BBX 4 7 0 -1
BITMAP
70
60
40
a0
40
c0
c0
ENDCHAR
STARTCHAR dieresis
ENCODING 168
SWIDTH 500 0
DWIDTH 4 0
BBX 3 1 1 4
BITMAP
a0
ENDCHAR
STARTCHAR copyright
ENCODING 169
SWIDTH 900 0
DWIDTH 7 0
BBX 6 6 1 0
BITMAP
70
78
d4
d4
b8
70
ENDCHAR
STARTCHAR ordfeminine
ENCODING 170
SWIDTH 394 0
DWIDTH 4 0
BBX 4 3 0 2
BITMAP
70
b0
50
ENDCHAR
STARTCHAR guillemotleft
ENCODING 171
SWIDTH 442 0
DWIDTH 4 0
BBX 4 3 0 0
BITMAP
50
a0
50
ENDCHAR
STARTCHAR logicalnot
ENCODING 172
SWIDTH 833 0
DWIDTH 7 0
BBX 5 2 1 1
BITMAP
f8
08
ENDCHAR
STARTCHAR hyphen
ENCODING 173
SWIDTH 319 0
DWIDTH 3 0
BBX 2 1 0 1
BITMAP
c0
ENDCHAR
STARTCHAR registered
ENCODING 174
SWIDTH 900 0
DWIDTH 7 0
BBX 6 6 1 0
BITMAP
30
68
b4
a4
78
70
ENDCHAR
STARTCHAR macron
ENCODING 175
SWIDTH 500 0
DWIDTH 4 0
BBX 2 1 2 4
BITMAP
c0
ENDCHAR
STARTCHAR degree
ENCODING 176
SWIDTH 329 0
DWIDTH 4 0
BBX 3 3 1 4
BITMAP
40
a0
40
ENDCHAR
STARTCHAR plusminus
ENCODING 177
SWIDTH 833 0
DWIDTH 7 0
BBX 5 5 1 0
BITMAP
20
f8
20
00
f8
ENDCHAR
STARTCHAR twosuperior
ENCODING 178
SWIDTH 367 0
DWIDTH 3 0
BBX 3 4 0 2
BITMAP
40
a0
e0
c0
ENDCHAR
STARTCHAR threesuperior
ENCODING 179
SWIDTH 367 0
DWIDTH 3 0
BBX 3 5 0 2
BITMAP
40
20
40
20
c0
ENDCHAR
STARTCHAR acute
ENCODING 180
SWIDTH 500 0
DWIDTH 4 0
BBX 2 2 2 4
BITMAP
40
80
ENDCHAR
STARTCHAR mu
ENCODING 181
SWIDTH 548 0
DWIDTH 5 0
BBX 5 6 0 -2
BITMAP
50
50
98
f0
80
80
ENDCHAR
STARTCHAR paragraph
ENCODING 182
SWIDTH 484 0
DWIDTH 4 0
BBX 4 7 0 -1
BITMAP
70
d0
d0
d0
10
10
10
ENDCHAR
STARTCHAR periodcentered
ENCODING 183
SWIDTH 278 0
DWIDTH 2 0
BBX 1 1 1 2
BITMAP
80
ENDCHAR
STARTCHAR cedilla
ENCODING 184
SWIDTH 500 0
DWIDTH 4 0
BBX 2 2 0 -2
BITMAP
40
80
ENDCHAR
STARTCHAR onesuperior
ENCODING 185
SWIDTH 367 0
DWIDTH 3 0
BBX 2 4 0 2
BITMAP
40
c0
40
c0
ENDCHAR
STARTCHAR ordmasculine
ENCODING 186
SWIDTH 377 0
DWIDTH 3 0
BBX 3 3 0 2
BITMAP
40
a0
40
ENDCHAR
STARTCHAR guillemotright
ENCODING 187
SWIDTH 442 0
DWIDTH 4 0
BBX 4 3 0 0
BITMAP
a0
50
a0
ENDCHAR
STARTCHAR onequarter
ENCODING 188
SWIDTH 867 0
DWIDTH 7 0
BBX 7 6 0 0
BITMAP
44
c8
56
da
2e
44
ENDCHAR
STARTCHAR onehalf
ENCODING 189
SWIDTH 867 0
DWIDTH 7 0
BBX 7 6 0 0
BITMAP
44
c8
54
da
2e
4c
ENDCHAR
STARTCHAR threequarters
ENCODING 190
SWIDTH 867 0
DWIDTH 7 0
BBX 7 7 0 0
BITMAP
40
24
48
36
da
2e
44
ENDCHAR
STARTCHAR questiondown
ENCODING 191
SWIDTH 486 0
DWIDTH 4 0
BBX 3 6 0 0
BITMAP
20
00
60
80
a0
40
ENDCHAR
STARTCHAR Agrave
ENCODING 192
SWIDTH 606 0
DWIDTH 5 0
BBX 6 8 -1 0
BITMAP
10
08
18
18
28
78
48
cc
ENDCHAR
STARTCHAR Aacute
ENCODING 193
SWIDTH 606 0
DWIDTH 5 0
BBX 6 8 -1 0
BITMAP
04
08
18
18
28
78
48
cc
ENDCHAR
STARTCHAR Acircumflex
ENCODING 194
SWIDTH 606 0
DWIDTH 5 0
BBX 6 8 -1 0
BITMAP
08
14
18
18
28
78
48
cc
ENDCHAR
STARTCHAR Atilde
ENCODING 195
SWIDTH 606 0
DWIDTH 5 0
BBX 6 8 -1 0
BITMAP
1c
00
18
18
28
78
48
cc
ENDCHAR
STARTCHAR Adieresis
ENCODING 196
SWIDTH 606 0
DWIDTH 5 0
BBX 6 7 -1 0
BITMAP
14
18
18
28
78
48
cc
ENDCHAR
STARTCHAR Aring
ENCODING 197
SWIDTH 606 0
DWIDTH 5 0
BBX 6 8 -1 0
BITMAP
1c
00
18
18
28
78
48
cc
ENDCHAR
STARTCHAR AE
ENCODING 198
SWIDTH 873 0
DWIDTH 7 0
BBX 8 6 -1 0
BITMAP
0f00
1400
1600
3a00
4900
de00
ENDCHAR
STARTCHAR Ccedilla
ENCODING 199
SWIDTH 604 0
DWIDTH 5 0
BBX 5 8 0 -2
BITMAP
38
48
80
80
90
70
20
40
ENDCHAR
STARTCHAR Egrave
ENCODING 200
SWIDTH 546 0
DWIDTH 5 0
BBX 5 8 0 0
BITMAP
40
20
78
40
70
50
48
f0
ENDCHAR
STARTCHAR Eacute
ENCODING 201
SWIDTH 546 0
DWIDTH 5 0
BBX 5 8 0 0
BITMAP
10
20
78
40
70
50
48
f0
ENDCHAR
STARTCHAR Ecircumflex
ENCODING 202
SWIDTH 546 0
DWIDTH 5 0
BBX 5 8 0 0
BITMAP
20
50
78
40
70
50
48
f0
ENDCHAR
STARTCHAR Edieresis
ENCODING 203
SWIDTH 546 0
DWIDTH 5 0
BBX 5 7 0 0
BITMAP
50
78
40
70
50
48
f0
ENDCHAR
STARTCHAR Igrave
ENCODING 204
SWIDTH 313 0
DWIDTH 3 0
BBX 3 8 0 0
BITMAP
80
40
60
40
40
40
40
c0
ENDCHAR
STARTCHAR Iacute
ENCODING 205
SWIDTH 313 0
DWIDTH 3 0
BBX 3 8 0 0
BITMAP
20
40
60
40
40
40
40
c0
ENDCHAR
STARTCHAR Icircumflex
ENCODING 206
SWIDTH 313 0
DWIDTH 3 0
BBX 3 8 0 0
BITMAP
40
a0
60
40
40
40
40
c0
ENDCHAR
STARTCHAR Idieresis
ENCODING 207
SWIDTH 313 0
DWIDTH 3 0
BBX 3 7 0 0
BITMAP
a0
60
40
40
40
40
c0
ENDCHAR
STARTCHAR Eth
ENCODING 208
SWIDTH 671 0
DWIDTH 6 0
BBX 6 6 0 0
BITMAP
78
44
e4
44
58
e0
ENDCHAR
STARTCHAR Ntilde
ENCODING 209
SWIDTH 683 0
DWIDTH 5 0
BBX 6 8 0 0
BITMAP
38
00
4c
64
68
58
98
c8
ENDCHAR
STARTCHAR Ograve
ENCODING 210
SWIDTH 708 0
DWIDTH 6 0
BBX 6 8 0 0
BITMAP
20
10
38
44
84
84
88
70
ENDCHAR
STARTCHAR Oacute
ENCODING 211
SWIDTH 708 0
DWIDTH 6 0
BBX 6 8 0 0
BITMAP
08
10
38
44
84
84
88
70
ENDCHAR
STARTCHAR Ocircumflex
ENCODING 212
SWIDTH 708 0
DWIDTH 6 0
BBX 6 8 0 0
BITMAP
10
28
38
44
84
84
88
70
ENDCHAR
STARTCHAR Otilde
ENCODING 213
SWIDTH 708 0
DWIDTH 6 0
BBX 6 8 0 0
BITMAP
38
00
38
44
84
84
88
70
ENDCHAR
STARTCHAR Odieresis
ENCODING 214
SWIDTH 708 0
DWIDTH 6 0
BBX 6 7 0 0
BITMAP
28
38
44
84
84
88
70
ENDCHAR
STARTCHAR multiply
ENCODING 215
SWIDTH 833 0
DWIDTH 7 0
BBX 5 4 1 0
BITMAP
88
70
50
88
ENDCHAR
STARTCHAR Oslash
ENCODING 216
SWIDTH 708 0
DWIDTH 6 0
BBX 6 7 0 -1
BITMAP
38
4c
94
a4
c8
b0
80
ENDCHAR
STARTCHAR Ugrave
ENCODING 217
SWIDTH 664 0
DWIDTH 6 0
BBX 5 8 1 0
BITMAP
40
20
d8
48
90
90
90
60
ENDCHAR
STARTCHAR Uacute
ENCODING 218
SWIDTH 664 0
DWIDTH 6 0
BBX 5 8 1 0
BITMAP
10
20
d8
48
90
90
90
60
ENDCHAR
STARTCHAR Ucircumflex
ENCODING 219
SWIDTH 664 0
DWIDTH 6 0
BBX 5 8 1 0
BITMAP
20
50
d8
48
90
90
90
60
ENDCHAR
STARTCHAR Udieresis
ENCODING 220
SWIDTH 664 0
DWIDTH 6 0
BBX 5 7 1 0
BITMAP
50
d8
48
90
90
90
60
ENDCHAR
STARTCHAR Yacute
ENCODING 221
SWIDTH 563 0
DWIDTH 4 0
BBX 5 8 0 0
BITMAP
10
20
d8
50
60
40
40
60
ENDCHAR
STARTCHAR Thorn
ENCODING 222
SWIDTH 532 0
DWIDTH 5 0
BBX 5 6 0 0
BITMAP
60
30
48
58
60
c0
ENDCHAR
STARTCHAR germandbls
ENCODING 223
SWIDTH 574 0
DWIDTH 5 0
BBX 6 8 -1 -2
BITMAP
18
24
2c
38
34
58
40
80
ENDCHAR
STARTCHAR agrave
ENCODING 224
SWIDTH 525 0
DWIDTH 4 0
BBX 4 6 0 0
BITMAP
40
20
30
50
a0
50
ENDCHAR
STARTCHAR aacute
ENCODING 225
SWIDTH 525 0
DWIDTH 4 0
BBX 4 6 0 0
BITMAP
10
20
30
50
a0
50
ENDCHAR
STARTCHAR acircumflex
ENCODING 226
SWIDTH 525 0
DWIDTH 4 0
BBX 4 6 0 0
BITMAP
20
50
30
50
a0
50
ENDCHAR
STARTCHAR atilde
ENCODING 227
SWIDTH 525 0
DWIDTH 4 0
BBX 4 6 0 0
BITMAP
70
00
30
50
a0
50
ENDCHAR
STARTCHAR adieresis
ENCODING 228
SWIDTH 525 0
DWIDTH 4 0
BBX 4 5 0 0
BITMAP
50
30
50
a0
50
ENDCHAR
STARTCHAR aring
ENCODING 229
SWIDTH 525 0
DWIDTH 4 0
BBX 4 6 0 0
BITMAP
30
00
30
50
a0
50
ENDCHAR
STARTCHAR ae
ENCODING 230
SWIDTH 671 0
DWIDTH 6 0
BBX 6 4 0 0
BITMAP
28
54
78
fc
ENDCHAR
STARTCHAR ccedilla
ENCODING 231
SWIDTH 394 0
DWIDTH 3 0
BBX 3 6 0 -2
BITMAP
60
80
a0
40
40
80
ENDCHAR
STARTCHAR egrave
ENCODING 232
SWIDTH 424 0
DWIDTH 4 0
BBX 4 6 0 0
BITMAP
40
20
20
70
c0
70
ENDCHAR
STARTCHAR eacute
ENCODING 233
SWIDTH 424 0
DWIDTH 4 0
BBX 4 6 0 0
BITMAP
10
20
20
70
c0
70
ENDCHAR
STARTCHAR ecircumflex
ENCODING 234
SWIDTH 424 0
DWIDTH 4 0
BBX 4 6 0 0
BITMAP
20
50
20
70
c0
70
ENDCHAR
STARTCHAR edieresis
ENCODING 235
SWIDTH 424 0
DWIDTH 4 0
BBX 4 5 0 0
BITMAP
50
20
70
c0
70
ENDCHAR
STARTCHAR igrave
ENCODING 236
SWIDTH 287 0
DWIDTH 2 0
BBX 2 6 0 0
BITMAP
80
40
80
80
80
c0
ENDCHAR
STARTCHAR iacute
ENCODING 237
SWIDTH 287 0
DWIDTH 2 0
BBX 3 6 0 0
BITMAP
20
40
80
80
80
c0
ENDCHAR
STARTCHAR icircumflex
ENCODING 238
SWIDTH 287 0
DWIDTH 2 0
BBX 3 6 0 0
BITMAP
40
a0
80
80
80
c0
ENDCHAR
STARTCHAR idieresis
ENCODING 239
SWIDTH 287 0
DWIDTH 2 0
BBX 3 5 0 0
BITMAP
a0
80
80
80
c0
ENDCHAR
STARTCHAR eth
ENCODING 240
SWIDTH 500 0
DWIDTH 4 0
BBX 4 6 0 0
BITMAP
70
60
70
90
90
60
ENDCHAR
STARTCHAR ntilde
ENCODING 241
SWIDTH 556 0
DWIDTH 5 0
BBX 5 6 0 0
BITMAP
70
00
f0
50
90
98
ENDCHAR
STARTCHAR ograve
ENCODING 242
SWIDTH 502 0
DWIDTH 4 0
BBX 4 6 0 0
BITMAP
40
20
60
90
90
60
ENDCHAR
STARTCHAR oacute
ENCODING 243
SWIDTH 502 0
DWIDTH 4 0
BBX 4 6 0 0
BITMAP
10
20
60
90
90
60
ENDCHAR
STARTCHAR ocircumflex
ENCODING 244
SWIDTH 502 0
DWIDTH 4 0
BBX 4 6 0 0
BITMAP
20
50
60
90
90
60
ENDCHAR
STARTCHAR otilde
ENCODING 245
SWIDTH 502 0
DWIDTH 4 0
BBX 4 6 0 0
BITMAP
70
00
60
90
90
60
ENDCHAR
STARTCHAR odieresis
ENCODING 246
SWIDTH 502 0
DWIDTH 4 0
BBX 4 5 0 0
BITMAP
50
60
90
90
60
ENDCHAR
STARTCHAR divide
ENCODING 247
SWIDTH 833 0
DWIDTH 7 0
BBX 5 5 1 0
BITMAP
20
00
f8
00
20
ENDCHAR
STARTCHAR oslash
ENCODING 248
SWIDTH 502 0
DWIDTH 4 0
BBX 4 5 0 -1
BITMAP
70
b0
d0
60
80
ENDCHAR
STARTCHAR ugrave
ENCODING 249
SWIDTH 553 0
DWIDTH 5 0
BBX 4 6 0 0
BITMAP
40
20
90
90
a0
d0
ENDCHAR
STARTCHAR uacute
ENCODING 250
SWIDTH 553 0
DWIDTH 5 0
BBX 4 6 0 0
BITMAP
10
20
90
90
a0
d0
ENDCHAR
STARTCHAR ucircumflex
ENCODING 251
SWIDTH 553 0
DWIDTH 5 0
BBX 4 6 0 0
BITMAP
20
50
90
90
a0
d0
ENDCHAR
STARTCHAR udieresis
ENCODING 252
SWIDTH 553 0
DWIDTH 5 0
BBX 4 5 0 0
BITMAP
50
90
90
a0
d0
ENDCHAR
STARTCHAR yacute
ENCODING 253
SWIDTH 475 0
DWIDTH 4 0
BBX 5 8 -1 -2
BITMAP
08
10
48
30
30
20
20
c0
ENDCHAR
STARTCHAR thorn
ENCODING 254
SWIDTH 516 0
DWIDTH 4 0
BBX 5 8 -1 -2
BITMAP
60
20
30
68
58
60
40
c0
ENDCHAR
STARTCHAR ydieresis
ENCODING 255
SWIDTH 475 0
DWIDTH 4 0
BBX 5 7 -1 -2
BITMAP
28
48
30
30
20
20
c0
ENDCHAR
ENDFONT
